<svg width="32" height="18" viewBox="0 0 32 18" fill="none" xmlns="http://www.w3.org/2000/svg">
<path d="M30.8203 1.03622L30.8202 1.03627C31.0947 1.31063 31.25 1.67761 31.25 2.0617C31.25 2.44577 31.0947 2.81274 30.8203 3.0871C30.8202 3.08711 30.8202 3.08713 30.8202 3.08714L17.1114 16.7953C16.9669 16.9398 16.7937 17.0541 16.6029 17.1321C16.412 17.21 16.2069 17.25 16 17.25C15.7931 17.25 15.588 17.21 15.3971 17.1321C15.2063 17.0541 15.0331 16.9398 14.8886 16.7953M30.8203 1.03622L1.35653 2.91031L1.1798 3.08714L14.8886 16.7953M30.8203 1.03622L30.8159 1.0321L30.8027 1.01944C30.6682 0.885267 30.5074 0.779034 30.3301 0.70653C30.1518 0.633606 29.9603 0.596157 29.767 0.596157C29.5737 0.596157 29.3821 0.633606 29.2038 0.706529C29.0255 0.779459 28.8639 0.886518 28.729 1.02181L15.9975 13.7535M30.8203 1.03622L15.9975 13.7535M14.8886 16.7953L15.0654 16.6185L14.8886 16.7953L14.8886 16.7953ZM1.19734 1.01945L1.18408 1.03209L1.18403 1.03204L1.1798 1.03626C0.905288 1.31062 0.750001 1.67761 0.750001 2.0617C0.750001 2.44577 0.905271 2.81274 1.17976 3.0871L1.37202 1.19833M1.19734 1.01945C1.19655 1.02024 1.19577 1.02102 1.19499 1.02181L1.37202 1.19833M1.19734 1.01945L1.19957 1.01733L1.37202 1.19833M1.19734 1.01945C1.33176 0.885276 1.49261 0.779035 1.66988 0.706527C1.84816 0.633603 2.03972 0.596155 2.23302 0.596155C2.42631 0.596155 2.61788 0.633603 2.79616 0.706527C2.97446 0.779457 3.13615 0.886516 3.27105 1.02181M1.37202 1.19833C1.48296 1.08706 1.6165 0.998462 1.76452 0.937919C1.91254 0.877376 2.07194 0.846155 2.23302 0.846155C2.3941 0.846155 2.5535 0.877376 2.70151 0.937919C2.84953 0.998462 2.98308 1.08706 3.09402 1.19833M3.27105 1.02181L3.27083 1.02159L3.09402 1.19833M3.27105 1.02181L15.9975 13.7535M3.27105 1.02181L3.09402 1.19833M3.09402 1.19833L15.9975 13.7535" fill="#345E9F" stroke="#345E9F" stroke-width="0.5"/>
</svg>
