<svg width="18" height="11" viewBox="0 0 24 16" fill="none" xmlns="http://www.w3.org/2000/svg">
<path fill-rule="evenodd" clip-rule="evenodd" d="M11.7784 15.0217H13.2336C13.2336 15.0217 13.6701 14.9465 13.8884 14.721C14.1066 14.4955 14.1066 14.0444 14.1066 14.0444C14.1066 14.0444 14.1066 12.0899 14.9797 11.7892C15.8528 11.4885 17.0169 13.7437 18.181 14.5707C19.0541 15.2472 19.7089 15.0969 19.7089 15.0969L22.9102 15.0217C22.9102 15.0217 24.5835 14.9465 23.7832 13.5182C23.7105 13.443 23.3467 12.5409 21.3823 10.6616C19.3451 8.70704 19.6361 9.08291 22.0371 5.70006C23.4922 3.67035 24.0743 2.46755 23.9287 1.86616C23.7832 1.33994 22.6919 1.49029 22.6919 1.49029H19.0541C19.0541 1.49029 18.763 1.41511 18.6175 1.56546C18.3993 1.71581 18.3265 1.94133 18.3265 1.94133C18.3265 1.94133 17.7445 3.52 17.0169 4.87314C15.4163 7.6546 14.7614 7.80495 14.5432 7.6546C13.9611 7.27873 14.1066 6.00076 14.1066 5.17384C14.1066 2.46755 14.5432 1.33994 13.3063 1.03924C12.9425 0.964063 12.6515 0.888889 11.6329 0.888889C10.3233 0.888889 9.23197 0.888889 8.64992 1.18959C8.21338 1.41511 7.92235 1.86616 8.14062 1.86616C8.35889 1.86616 8.94094 2.01651 9.23197 2.39238C9.52299 3.06895 9.52299 4.19657 9.52299 4.19657C9.52299 4.19657 9.74126 7.42907 9.0137 7.80495C8.5044 8.10564 7.8496 7.50425 6.39447 4.94831C5.66691 3.67035 5.08486 2.16686 5.08486 2.16686C5.08486 2.16686 5.0121 1.86616 4.79383 1.71581C4.57556 1.56546 4.21178 1.49029 4.21178 1.49029H0.792235C0.792235 1.49029 0.282941 1.49029 0.0646723 1.71581C-0.0808404 1.94133 0.0646723 2.31721 0.0646723 2.31721C0.0646723 2.31721 2.75666 8.78222 5.81242 12.0899C8.64992 15.2472 11.7784 15.0217 11.7784 15.0217Z" fill="white"/>
</svg>
