<svg width="207" height="21" viewBox="0 0 207 21" fill="none" xmlns="http://www.w3.org/2000/svg">
<path d="M0 20.7594L13.8267 1.80232C15.5914 -0.617348 19.2118 -0.599153 20.9401 1.84781L34.3666 20.7594H10.5247L13.8904 15.6472H23.1779L17.1014 7.36028L7.19533 20.7503H0V20.7594Z" fill="#345E9F"/>
<path d="M104.4 20.7594L118.227 1.80232C119.992 -0.617348 123.612 -0.599153 125.341 1.84781L138.767 20.7594H114.925L118.291 15.6472H127.578L121.502 7.36028L111.596 20.7503H104.4V20.7594Z" fill="#345E9F"/>
<path d="M57.1717 15.9201L53.6332 20.7504H44.5003C42.217 20.7504 39.9247 20.3865 37.7961 19.5587C34.7761 18.3762 31.4195 16.0565 31.1284 11.5902C30.9283 8.49736 31.9835 6.17775 33.3843 4.4858C35.4947 1.93878 38.7331 0.592499 42.0351 0.592499H57.6356L54.2335 5.31358H42.781C39.8883 5.31358 37.5505 7.65138 37.5505 10.5441C37.5505 13.4095 39.8611 15.7473 42.7355 15.7746L57.1808 15.911L57.1717 15.9201Z" fill="#345E9F"/>
<path d="M178.018 15.9201L174.48 20.7504H165.347C163.064 20.7504 160.771 20.3865 158.643 19.5587C155.623 18.3762 152.266 16.0565 151.975 11.5902C151.775 8.49736 152.83 6.17775 154.231 4.4858C156.341 1.93878 159.58 0.592499 162.882 0.592499H178.482L175.08 5.31358H163.628C160.735 5.31358 158.397 7.65138 158.397 10.5441C158.397 13.4095 160.708 15.7473 163.582 15.7746L178.027 15.911L178.018 15.9201Z" fill="#345E9F"/>
<path d="M56.553 5.5046L60.0734 0.628876H101.935C105.983 0.628876 109.267 3.91272 109.267 7.96066C109.267 12.0086 105.983 15.2924 101.935 15.2924H88.4818V20.7503H82.1688V10.4531H100.926C102.308 10.4531 103.418 9.33423 103.418 7.96066C103.418 6.57799 102.299 5.46821 100.926 5.46821H72.2263V20.9141H66.2226V5.5046H56.5439H56.553Z" fill="#345E9F"/>
<path d="M139.913 8.32452L136.657 12.6181H146.818L149.719 8.35181L139.913 8.32452Z" fill="#345E9F"/>
<path d="M180.848 0.601564V20.7776H187.461V12.2178L197.476 20.7776H207L193.528 10.0619L206.018 0.628852H196.839L187.406 8.23353V0.583374L180.848 0.601564Z" fill="#345E9F"/>
</svg>
